<?xml version="1.0" encoding="UTF-8"?>
<!DOCTYPE svg PUBLIC "-//W3C//DTD SVG 1.1//EN" "http://www.w3.org/Graphics/SVG/1.1/DTD/svg11.dtd">
<!-- Creator: CorelDRAW X7 -->
<svg xmlns="http://www.w3.org/2000/svg" xml:space="preserve" width="3.93701in" height="3.93701in" version="1.1" style="shape-rendering:geometricPrecision; text-rendering:geometricPrecision; image-rendering:optimizeQuality; fill-rule:evenodd; clip-rule:evenodd"
viewBox="0 0 3937 3937"
 xmlns:xlink="http://www.w3.org/1999/xlink">
 <defs>
  <style type="text/css">
   <![CDATA[
    .fil1 {fill:white}
    .fil0 {fill:white;fill-rule:nonzero}
   ]]>
  </style>
 </defs>
 <g id="Layer_x0020_1">
  <metadata id="CorelCorpID_0Corel-Layer"/>
  <g id="_610313784">
   <path class="fil0" d="M-485 445l0 2449c-101,-7 -198,-26 -291,-56 -365,-118 -655,-402 -781,-764l291 -95c84,237 262,429 490,531l0 -1681c-83,37 -159,86 -226,144l-200 -231c123,-107 267,-190 426,-241 93,-30 190,-49 291,-56zm0 0z"/>
   <path class="fil0" d="M817 1524c-56,-476 -384,-869 -824,-1017 -93,-32 -191,-52 -292,-61l0 2447c101,-8 199,-29 292,-60l0 -1017 824 0c6,-48 9,-97 9,-146 0,-50 -3,-98 -9,-146zm-824 0l0 -688c269,128 467,383 515,688l-515 0zm0 0z"/>
   <g>
    <path class="fil0" d="M1087 1195c0,103 64,181 195,181 120,0 196,-75 196,-178l0 -428 -131 0 0 420c0,40 -18,65 -67,65 -50,0 -67,-29 -67,-60l0 -42 -126 0 0 42zm576 171l43 -126 192 0 42 126 138 0 -211 -596 -128 0 -212 596 136 0zm123 -363c7,-21 14,-44 16,-58 3,15 10,38 16,58l43 128 -118 0 43 -128zm438 363l135 0 219 -596 -136 0 -112 301c-12,35 -24,68 -39,126 -13,-52 -24,-89 -38,-126l-113 -301 -139 0 223 596zm412 0l43 -126 193 0 42 126 138 0 -212 -596 -127 0 -213 596 136 0zm124 -363c7,-21 13,-44 16,-58 2,15 9,38 16,58l43 128 -118 0 43 -128z"/>
    <path class="fil0" d="M1375 1931c121,0 203,-80 203,-199 0,-119 -82,-199 -203,-199l-242 0 0 596 130 0 0 -198 112 0zm-29 -282c62,0 94,28 94,83 0,56 -32,83 -94,83l-83 0 0 -166 83 0zm444 480l0 -208 101 0 89 208 143 0 -105 -236c66,-34 99,-89 99,-166 0,-124 -82,-194 -227,-194l-230 0 0 596 130 0zm0 -480l100 0c58,0 89,28 89,78 0,50 -33,79 -90,79l-99 0 0 -157zm975 182c0,-182 -120,-308 -293,-308 -172,0 -291,126 -291,308 0,182 118,308 290,308 174,0 294,-126 294,-308zm-138 0c0,112 -58,182 -154,182 -97,0 -155,-68 -155,-182 0,-114 58,-182 155,-182 96,0 154,68 154,182zm183 128c0,103 63,181 195,181 119,0 195,-76 195,-178l0 -429 -130 0 0 421c0,40 -19,65 -67,65 -50,0 -68,-29 -68,-60l0 -42 -125 0 0 42zm889 170l0 -120 -248 0 0 -124 219 0 0 -114 -219 0 0 -117 248 0 0 -121 -379 0 0 596 379 0zm364 10c149,0 261,-88 282,-221l-136 0c-16,59 -70,95 -143,95 -96,0 -156,-70 -156,-182 0,-113 59,-182 156,-182 72,0 122,34 140,94l138 0c-19,-134 -126,-219 -275,-219 -178,0 -296,122 -296,308 0,189 112,307 290,307zm290 -485l169 0 0 475 131 0 0 -475 169 0 0 -121 -469 0 0 121zm529 486c39,0 74,-33 74,-73 0,-40 -35,-73 -74,-73 -41,0 -74,33 -74,73 0,40 33,73 74,73zm316 -607l-130 0 0 596 130 0 0 -596zm358 596c170,0 288,-122 288,-296 0,-177 -122,-300 -296,-300l-226 0 0 596 234 0zm-21 -475c108,0 171,66 171,179 0,110 -60,176 -163,176l-90 0 0 -355 82 0z"/>
   </g>
   <path class="fil0" d="M1172 2565l0 -120 29 0 0 -31 -29 0 0 -47 -37 0 0 47 -30 0 0 31 30 0 0 120 37 0zm119 4c39,0 67,-19 73,-53l-34 0c-5,15 -18,23 -39,23 -24,0 -38,-14 -41,-40l114 -1 0 -11c0,-47 -29,-78 -74,-78 -45,0 -76,33 -76,81 0,47 32,79 77,79zm-1 -129c22,0 37,14 37,35l-76 0c3,-23 17,-35 39,-35zm147 129c24,0 44,-10 51,-26l3 22 32 0 0 -91c0,-42 -25,-65 -65,-65 -42,0 -69,22 -69,55l32 0c0,-16 13,-25 35,-25 19,0 31,8 31,28l0 4 -45 3c-36,3 -56,20 -56,48 0,29 19,47 51,47zm13 -28c-17,0 -26,-6 -26,-20 0,-13 8,-20 32,-22l31 -3 0 8c0,23 -14,37 -37,37zm148 24l0 -85c0,-25 14,-36 32,-36 17,0 29,11 29,32l0 89 37 0 0 -85c0,-25 14,-37 32,-37 18,0 29,12 29,33l0 89 38 0 0 -99c0,-34 -21,-57 -57,-57 -23,0 -41,12 -49,29 -8,-17 -24,-29 -47,-29 -21,0 -37,10 -44,23l-4 -18 -34 0 0 151 38 0zm264 0l36 0 21 -65c8,-24 11,-35 12,-42 1,8 5,22 11,42l21 65 35 0 52 -151 -39 0 -21 65c-2,10 -7,28 -10,39 -2,-10 -8,-33 -10,-39l-20 -65 -38 0 -21 65c-5,15 -7,25 -10,39 -3,-14 -6,-27 -9,-39l-20 -65 -39 0 49 151zm195 -76c0,48 34,80 80,80 47,0 81,-32 81,-80 0,-47 -34,-79 -81,-79 -46,0 -80,32 -80,79zm37 0c0,-27 18,-46 43,-46 26,0 44,19 44,46 0,28 -18,47 -44,47 -25,0 -43,-19 -43,-47zm249 -76c-6,-1 -11,-2 -17,-2 -20,0 -34,10 -41,25l-2 -22 -35 0 0 151 37 0 0 -73c0,-29 17,-44 44,-44l14 0 0 -35zm63 152l0 -40 22 -23 40 63 43 0 -57 -91 58 -60 -47 0 -59 64 0 -141 -37 0 0 228 37 0zm247 0l0 -85c0,-25 15,-36 33,-36 17,0 29,11 29,32l0 89 37 0 0 -85c0,-25 14,-37 32,-37 18,0 29,12 29,33l0 89 37 0 0 -99c0,-34 -20,-57 -57,-57 -23,0 -40,12 -48,29 -8,-17 -24,-29 -47,-29 -22,0 -37,10 -45,23l-3 -18 -34 0 0 151 37 0zm279 4c24,0 44,-10 51,-26l3 22 32 0 0 -91c0,-42 -25,-65 -66,-65 -41,0 -68,22 -68,55l32 0c0,-16 13,-25 35,-25 19,0 31,8 31,28l0 4 -45 3c-36,3 -57,20 -57,48 0,29 20,47 52,47zm12 -28c-16,0 -26,-6 -26,-20 0,-13 9,-20 33,-22l31 -3 0 8c0,23 -15,37 -38,37zm149 24l0 -40 22 -23 39 63 43 0 -56 -91 58 -60 -47 0 -59 64 0 -141 -37 0 0 228 37 0zm188 4c39,0 67,-19 73,-53l-34 0c-4,15 -18,23 -38,23 -25,0 -39,-14 -42,-40l114 -1 0 -11c0,-47 -29,-78 -74,-78 -45,0 -76,33 -76,81 0,47 32,79 77,79zm-1 -129c22,0 37,14 37,35l-76 0c3,-23 17,-35 39,-35zm92 79c0,30 24,50 62,50 37,0 63,-19 63,-49 0,-23 -13,-35 -38,-41l-27 -6c-13,-3 -20,-9 -20,-18 0,-11 9,-18 23,-18 15,0 23,9 24,22l35 0c0,-30 -23,-50 -57,-50 -35,0 -60,18 -60,48 0,24 13,37 40,43l28 7c13,3 17,8 17,16 0,11 -9,18 -27,18 -17,0 -27,-8 -27,-22l-36 0zm288 46l0 -120 29 0 0 -31 -29 0 0 -47 -37 0 0 47 -30 0 0 31 30 0 0 120 37 0zm90 0l0 -82c0,-23 14,-39 37,-39 19,0 32,12 32,37l0 84 37 0 0 -93c0,-39 -19,-63 -57,-63 -21,0 -39,10 -49,25l0 -97 -37 0 0 228 37 0zm211 4c39,0 67,-19 73,-53l-34 0c-5,15 -18,23 -39,23 -24,0 -38,-14 -41,-40l114 -1 0 -11c0,-47 -29,-78 -74,-78 -45,0 -76,33 -76,81 0,47 32,79 77,79zm-1 -129c22,0 37,14 37,35l-76 0c3,-23 17,-35 39,-35zm249 129c23,0 42,-10 52,-27l2 23 34 0 0 -228 -37 0 0 96c-9,-15 -28,-24 -49,-24 -46,0 -73,34 -73,81 0,47 27,79 71,79zm8 -34c-26,0 -42,-19 -42,-46 0,-27 16,-46 42,-46 26,0 43,19 43,46 0,27 -17,46 -43,46zm214 -122c-6,-1 -11,-2 -16,-2 -21,0 -35,10 -41,25l-3 -22 -35 0 0 151 38 0 0 -73c0,-29 16,-44 43,-44l14 0 0 -35zm88 156c40,0 67,-19 74,-53l-35 0c-4,15 -18,23 -38,23 -25,0 -39,-14 -42,-40l114 -1 0 -11c0,-47 -29,-78 -74,-78 -45,0 -75,33 -75,81 0,47 31,79 76,79zm-1 -129c23,0 37,14 37,35l-76 0c4,-23 17,-35 39,-35zm148 129c23,0 44,-10 50,-26l3 22 33 0 0 -91c0,-42 -25,-65 -66,-65 -41,0 -68,22 -68,55l32 0c0,-16 12,-25 34,-25 19,0 31,8 31,28l0 4 -45 3c-36,3 -56,20 -56,48 0,29 19,47 52,47zm12 -28c-17,0 -26,-6 -26,-20 0,-13 9,-20 32,-22l32 -3 0 8c0,23 -15,37 -38,37zm148 24l0 -85c0,-25 14,-36 32,-36 18,0 29,11 29,32l0 89 37 0 0 -85c0,-25 14,-37 32,-37 18,0 30,12 30,33l0 89 37 0 0 -99c0,-34 -20,-57 -57,-57 -23,0 -41,12 -49,29 -8,-17 -23,-29 -46,-29 -22,0 -38,10 -45,23l-3 -18 -35 0 0 151 38 0zm350 0l36 0 21 -65c8,-24 10,-35 12,-42 1,8 5,22 11,42l21 65 34 0 53 -151 -40 0 -20 65c-3,10 -8,28 -10,39 -2,-10 -8,-33 -10,-39l-20 -65 -38 0 -21 65c-5,15 -8,25 -10,39 -3,-14 -6,-27 -9,-39l-20 -65 -39 0 49 151zm194 -76c0,48 34,80 81,80 47,0 81,-32 81,-80 0,-47 -34,-79 -81,-79 -47,0 -81,32 -81,79zm38 0c0,-27 17,-46 43,-46 26,0 44,19 44,46 0,28 -18,47 -44,47 -26,0 -43,-19 -43,-47zm249 -76c-6,-1 -12,-2 -17,-2 -20,0 -34,10 -41,25l-2 -22 -35 0 0 151 37 0 0 -73c0,-29 17,-44 44,-44l14 0 0 -35zm63 152l0 -40 22 -23 40 63 42 0 -56 -91 58 -60 -47 0 -59 64 0 -141 -37 0 0 228 37 0z"/>
   <path class="fil1" d="M-1497 1611c80,0 144,65 144,144 0,80 -64,145 -144,145 -80,0 -145,-65 -145,-145 0,-79 65,-144 145,-144z"/>
  </g>
 </g>
</svg>
